HIERARCHY
ROOT Root
{
  OFFSET 0.0 0.0 0.0
  CHANNELS 6 Xposition Yposition Zposition Zrotation Yrotation Xrotation
  JOINT Hips
  {
    OFFSET 0.0 100.0 0.0
    CHANNELS 6 Xposition Yposition Zposition Zrotation Yrotation Xrotation
    JOINT Spine1
    {
      OFFSET 5.003913 -0.037094 -0.013727
      CHANNELS 3 Zrotation Yrotation Xrotation
      JOINT Spine2
      {
        OFFSET 7.125363 -1e-06 0.0
        CHANNELS 3 Zrotation Yrotation Xrotation
        JOINT Chest
        {
          OFFSET 7.594027 1e-06 0.0
          CHANNELS 3 Zrotation Yrotation Xrotation
          JOINT Neck1
          {
            OFFSET 26.313086 -0.460272 -0.181672
            CHANNELS 3 Zrotation Yrotation Xrotation
            JOINT Neck2
            {
              OFFSET 8.045911 0.0 0.0
              CHANNELS 3 Zrotation Yrotation Xrotation
              JOINT Head
              {
                OFFSET 6.432774 0.0 0.0
                CHANNELS 3 Zrotation Yrotation Xrotation
                JOINT HeadEnd
                {
                  OFFSET 16.169773 0.06451 0.00362
                  CHANNELS 3 Zrotation Yrotation Xrotation
                }
                JOINT Jaw
                {
                  OFFSET 0.108741 3.12938 0.002639
                  CHANNELS 3 Zrotation Yrotation Xrotation
                }
                JOINT LeftEye
                {
                  OFFSET 4.45173 8.166359 3.206392
                  CHANNELS 3 Zrotation Yrotation Xrotation
                }
                JOINT RightEye
                {
                  OFFSET 4.436895 8.135758 -3.222429
                  CHANNELS 3 Zrotation Yrotation Xrotation
                }
              }
            }
          }
          JOINT LeftShoulder
          {
            OFFSET 23.218927 5.195579 1.621656
            CHANNELS 3 Zrotation Yrotation Xrotation
            JOINT LeftArm
            {
              OFFSET 15.902118 2e-06 -2e-06
              CHANNELS 3 Zrotation Yrotation Xrotation
              JOINT LeftForeArm
              {
                OFFSET 28.739307 0.0 -1e-06
                CHANNELS 3 Zrotation Yrotation Xrotation
                JOINT LeftHand
                {
                  OFFSET 27.093981 -4e-06 0.0
                  CHANNELS 3 Zrotation Yrotation Xrotation
                  JOINT LeftHandThumb1
                  {
                    OFFSET 2.276781 3.380274 0.83384
                    CHANNELS 3 Zrotation Yrotation Xrotation
                    JOINT LeftHandThumb2
                    {
                      OFFSET 4.705309 -1e-06 -1e-06
                      CHANNELS 3 Zrotation Yrotation Xrotation
                      JOINT LeftHandThumb3
                      {
                        OFFSET 2.798515 0.0 3e-06
                        CHANNELS 3 Zrotation Yrotation Xrotation
                        JOINT LeftHandThumbEnd
                        {
                          OFFSET 3.180793 4e-06 -4e-06
                          CHANNELS 3 Zrotation Yrotation Xrotation
                        }
                      }
                    }
                  }
                  JOINT LeftHandIndex1
                  {
                    OFFSET 3.247786 2.352677 0.137192
                    CHANNELS 3 Zrotation Yrotation Xrotation
                    JOINT LeftHandIndex2
                    {
                      OFFSET 6.367095 1e-06 0.0
                      CHANNELS 3 Zrotation Yrotation Xrotation
                      JOINT LeftHandIndex3
                      {
                        OFFSET 3.662364 0.0 0.0
                        CHANNELS 3 Zrotation Yrotation Xrotation
                        JOINT LeftHandIndex4
                        {
                          OFFSET 2.329242 4e-06 -4e-06
                          CHANNELS 3 Zrotation Yrotation Xrotation
                          JOINT LeftHandIndexEnd
                          {
                            OFFSET 2.767823 1e-06 0.0
                            CHANNELS 3 Zrotation Yrotation Xrotation
                          }
                        }
                      }
                    }
                  }
                  JOINT LeftHandMiddle1
                  {
                    OFFSET 3.163612 0.945023 -0.406112
                    CHANNELS 3 Zrotation Yrotation Xrotation
                    JOINT LeftHandMiddle2
                    {
                      OFFSET 6.276789 3e-06 0.0
                      CHANNELS 3 Zrotation Yrotation Xrotation
                      JOINT LeftHandMiddle3
                      {
                        OFFSET 4.35652 -1e-06 4e-06
                        CHANNELS 3 Zrotation Yrotation Xrotation
                        JOINT LeftHandMiddle4
                        {
                          OFFSET 2.996877 0.0 8e-06
                          CHANNELS 3 Zrotation Yrotation Xrotation
                          JOINT LeftHandMiddleEnd
                          {
                            OFFSET 2.323256 3e-06 -4e-06
                            CHANNELS 3 Zrotation Yrotation Xrotation
                          }
                        }
                      }
                    }
                  }
                  JOINT LeftHandRing1
                  {
                    OFFSET 2.882606 -0.309162 0.107445
                    CHANNELS 3 Zrotation Yrotation Xrotation
                    JOINT LeftHandRing2
                    {
                      OFFSET 6.033198 0.0 4e-06
                      CHANNELS 3 Zrotation Yrotation Xrotation
                      JOINT LeftHandRing3
                      {
                        OFFSET 4.350578 3e-06 0.0
                        CHANNELS 3 Zrotation Yrotation Xrotation
                        JOINT LeftHandRing4
                        {
                          OFFSET 2.651321 2e-06 -7e-06
                          CHANNELS 3 Zrotation Yrotation Xrotation
                          JOINT LeftHandRingEnd
                          {
                            OFFSET 1.937663 1e-06 -4e-06
                            CHANNELS 3 Zrotation Yrotation Xrotation
                          }
                        }
                      }
                    }
                  }
                  JOINT LeftHandPinky1
                  {
                    OFFSET 2.865315 -1.525436 0.575687
                    CHANNELS 3 Zrotation Yrotation Xrotation
                    JOINT LeftHandPinky2
                    {
                      OFFSET 5.54936 1e-06 -8e-06
                      CHANNELS 3 Zrotation Yrotation Xrotation
                      JOINT LeftHandPinky3
                      {
                        OFFSET 3.070974 0.0 -4e-06
                        CHANNELS 3 Zrotation Yrotation Xrotation
                        JOINT LeftHandPinky4
                        {
                          OFFSET 1.549672 1e-06 0.0
                          CHANNELS 3 Zrotation Yrotation Xrotation
                          JOINT LeftHandPinkyEnd
                          {
                            OFFSET 1.952123 0.0 0.0
                            CHANNELS 3 Zrotation Yrotation Xrotation
                          }
                        }
                      }
                    }
                  }
                }
              }
            }
          }
          JOINT RightShoulder
          {
            OFFSET 23.161716 5.296122 -1.380114
            CHANNELS 3 Zrotation Yrotation Xrotation
            JOINT RightArm
            {
              OFFSET -16.027195 -2e-06 1.1e-05
              CHANNELS 3 Zrotation Yrotation Xrotation
              JOINT RightForeArm
              {
                OFFSET -28.736639 4e-06 2e-06
                CHANNELS 3 Zrotation Yrotation Xrotation
                JOINT RightHand
                {
                  OFFSET -27.133619 6e-06 0.0
                  CHANNELS 3 Zrotation Yrotation Xrotation
                  JOINT RightHandThumb1
                  {
                    OFFSET -2.274328 -3.351035 -0.83067
                    CHANNELS 3 Zrotation Yrotation Xrotation
                    JOINT RightHandThumb2
                    {
                      OFFSET -4.703594 -3e-06 2e-06
                      CHANNELS 3 Zrotation Yrotation Xrotation
                      JOINT RightHandThumb3
                      {
                        OFFSET -2.794935 -4e-06 -3e-06
                        CHANNELS 3 Zrotation Yrotation Xrotation
                        JOINT RightHandThumbEnd
                        {
                          OFFSET -3.183852 4e-06 1e-06
                          CHANNELS 3 Zrotation Yrotation Xrotation
                        }
                      }
                    }
                  }
                  JOINT RightHandIndex1
                  {
                    OFFSET -3.253496 -2.33755 -0.127667
                    CHANNELS 3 Zrotation Yrotation Xrotation
                    JOINT RightHandIndex2
                    {
                      OFFSET -6.344434 0.0 0.0
                      CHANNELS 3 Zrotation Yrotation Xrotation
                      JOINT RightHandIndex3
                      {
                        OFFSET -3.654871 0.0 -8e-06
                        CHANNELS 3 Zrotation Yrotation Xrotation
                        JOINT RightHandIndex4
                        {
                          OFFSET -2.327586 -1e-06 0.0
                          CHANNELS 3 Zrotation Yrotation Xrotation
                          JOINT RightHandIndexEnd
                          {
                            OFFSET -2.770001 3e-06 8e-06
                            CHANNELS 3 Zrotation Yrotation Xrotation
                          }
                        }
                      }
                    }
                  }
                  JOINT RightHandMiddle1
                  {
                    OFFSET -3.168223 -0.944764 0.411762
                    CHANNELS 3 Zrotation Yrotation Xrotation
                    JOINT RightHandMiddle2
                    {
                      OFFSET -6.266691 -1e-06 -4e-06
                      CHANNELS 3 Zrotation Yrotation Xrotation
                      JOINT RightHandMiddle3
                      {
                        OFFSET -4.348901 0.0 0.0
                        CHANNELS 3 Zrotation Yrotation Xrotation
                        JOINT RightHandMiddle4
                        {
                          OFFSET -3.00024 2e-06 -4e-06
                          CHANNELS 3 Zrotation Yrotation Xrotation
                          JOINT RightHandMiddleEnd
                          {
                            OFFSET -2.321477 -4e-06 -4e-06
                            CHANNELS 3 Zrotation Yrotation Xrotation
                          }
                        }
                      }
                    }
                  }
                  JOINT RightHandRing1
                  {
                    OFFSET -2.885654 0.293261 -0.119232
                    CHANNELS 3 Zrotation Yrotation Xrotation
                    JOINT RightHandRing2
                    {
                      OFFSET -6.032835 -1e-06 -4e-06
                      CHANNELS 3 Zrotation Yrotation Xrotation
                      JOINT RightHandRing3
                      {
                        OFFSET -4.33881 0.0 -4e-06
                        CHANNELS 3 Zrotation Yrotation Xrotation
                        JOINT RightHandRing4
                        {
                          OFFSET -2.654903 -4e-06 -4e-06
                          CHANNELS 3 Zrotation Yrotation Xrotation
                          JOINT RightHandRingEnd
                          {
                            OFFSET -1.935122 0.0 4e-06
                            CHANNELS 3 Zrotation Yrotation Xrotation
                          }
                        }
                      }
                    }
                  }
                  JOINT RightHandPinky1
                  {
                    OFFSET -2.866241 1.503904 -0.60527
                    CHANNELS 3 Zrotation Yrotation Xrotation
                    JOINT RightHandPinky2
                    {
                      OFFSET -5.553177 -2e-06 0.0
                      CHANNELS 3 Zrotation Yrotation Xrotation
                      JOINT RightHandPinky3
                      {
                        OFFSET -3.062664 -1e-06 -4e-06
                        CHANNELS 3 Zrotation Yrotation Xrotation
                        JOINT RightHandPinky4
                        {
                          OFFSET -1.546529 2e-06 4e-06
                          CHANNELS 3 Zrotation Yrotation Xrotation
                          JOINT RightHandPinkyEnd
                          {
                            OFFSET -1.952341 0.0 -4e-06
                            CHANNELS 3 Zrotation Yrotation Xrotation
                          }
                        }
                      }
                    }
                  }
                }
              }
            }
          }
        }
      }
    }
    JOINT LeftLeg
    {
      OFFSET -8.443107 2.567604 10.043214
      CHANNELS 3 Zrotation Yrotation Xrotation
      JOINT LeftShin
      {
        OFFSET 43.229198 1e-06 -1e-06
        CHANNELS 3 Zrotation Yrotation Xrotation
        JOINT LeftFoot
        {
          OFFSET 42.298611 1e-06 1e-06
          CHANNELS 3 Zrotation Yrotation Xrotation
          JOINT LeftToeBase
          {
            OFFSET 14.165858 1e-06 0.0
            CHANNELS 3 Zrotation Yrotation Xrotation
            JOINT LeftToeEnd
            {
              OFFSET 6.7141 -0.234461 0.0
              CHANNELS 3 Zrotation Yrotation Xrotation
            }
          }
        }
      }
    }
    JOINT RightLeg
    {
      OFFSET -8.303923 2.592729 -10.047278
      CHANNELS 3 Zrotation Yrotation Xrotation
      JOINT RightShin
      {
        OFFSET -43.369682 0.0 1e-06
        CHANNELS 3 Zrotation Yrotation Xrotation
        JOINT RightFoot
        {
          OFFSET -42.260784 4e-06 2e-06
          CHANNELS 3 Zrotation Yrotation Xrotation
          JOINT RightToeBase
          {
            OFFSET -14.222245 -2e-06 -1e-06
            CHANNELS 3 Zrotation Yrotation Xrotation
            JOINT RightToeEnd
            {
              OFFSET -6.660062 0.232574 -2e-06
              CHANNELS 3 Zrotation Yrotation Xrotation
            }
          }
        }
      }
    }
  }
}
MOTION
Frames: 4
Frame Time: 0.03333333333333333
0.0 0.0 0.0 0.0 -0.0 0.0 -0.295166 100.86644 6.043931 91.051064 -2.436395 90.092033 -4.48006 -0.714854 -0.03991 -12.361089 -0.759841 -0.518266 15.757753 -0.888426 -2.62567 19.039057 0.38549 2.570152 -2.515508 -0.762895 -0.958555 -28.884291 -0.364505 -2.05322 6e-06 0.0 0.0 0.006404 0.026241 0.023154 0.062605 0.065719 0.044177 0.070537 -0.017555 0.00343 -133.654785 -70.01886 149.692017 36.481804 -50.775936 5.834713 26.599592 -0.392625 -0.084491 -7.336218 5.148735 -0.865781 17.636627 -26.322725 52.411194 -19.46666 -14.395597 29.410385 -0.0 -8.774821 -3e-06 16.268129 -17.876596 5.844195 -0.609776 -1.795653 -3.889328 -4.807089 -11.046809 -2.937851 4e-06 -20.976015 1e-06 -5.01997 -25.033554 -4.03188 5e-06 -1e-06 -0.0 -10.634532 -5.68697 -3.565589 10.573272 -17.922947 -3.113899 2e-06 -13.821206 2e-06 -0.501776 -31.181498 -4.027017 -11.209295 -59.283394 6.923354 -13.982716 -7.150198 -2.875041 13.77273 -8.401491 -3.218242 0.347731 -34.211544 0.771657 -0.963028 -17.733368 2.621022 -2e-06 1e-06 0.0 -17.346416 -20.095215 -4.201782 21.757557 -1.638374 3.866426 2e-06 -6.338824 1e-06 -1.69759 -22.59174 -6.194007 0.0 -5e-06 -1e-06 47.432369 -73.464027 147.723114 45.4795 -52.893749 17.600782 25.639391 -0.588087 0.037374 -1.404816 4.172332 -3.325733 22.182117 -20.375895 49.933319 -16.701811 -16.74353 28.476524 -2e-06 -12.690601 -0.0 16.213728 -17.68807 2.481043 -0.105919 -1.513856 -4.275878 -5.039042 -5.612874 -2.953555 3e-06 -11.020523 -2e-06 -6.1113 -15.895332 -3.840474 -0.0 1e-06 2e-06 -10.283369 -5.680288 -4.34184 11.028294 -11.302404 -2.372634 -1.38427 -14.23858 -6.320119 -0.625439 -26.924194 -3.827601 -4.235255 -49.485016 -3.978083 -13.708526 -7.363475 -3.720937 18.14115 -14.052739 -3.242676 5e-06 -18.78727 -1e-06 -0.429711 -8.456045 2.555502 2e-06 -1e-06 -0.0 -15.923536 -20.094482 -5.473584 30.41921 -7.190824 1.735927 2e-06 -8.162927 -0.0 -1.861903 -22.861473 -6.167941 -1e-06 -2e-06 -1e-06 178.145615 -2.353439 -12.117925 6.448543 -0.0166 0.052617 -73.964348 0.052877 -4.527594 -7.116765 1.433939 2.044282 -0.999999 -0.0 -0.0 -0.329393 -6.223311 -6.404547 6.858344 0.031115 -0.05988 -75.572311 -0.8638 -8.31618 -7.045929 0.870663 1.686163 -1.000003 -0.0 -0.0 
0.0 0.0 0.0 0.0 -0.0 0.0 -0.296808 100.875351 6.123812 91.041618 -2.434684 90.095604 -4.496179 -0.71854 -0.050482 -12.35307 -0.745367 -0.455725 15.726012 -0.873162 -2.669444 19.028151 0.360238 2.590449 -2.499443 -0.747949 -0.989079 -28.8421 -0.357896 -2.021294 6e-06 -0.0 -0.0 0.005564 0.024018 0.038756 0.062631 0.064604 0.061396 0.070517 -0.020922 0.017055 -133.714157 -70.004997 149.749939 36.481777 -50.75322 5.749876 26.620089 -0.46411 -0.126743 -7.328131 5.087022 -0.640226 17.636625 -26.322725 52.411182 -19.46666 -14.395596 29.410385 -1e-06 -8.774821 -2e-06 16.269375 -17.839252 5.835278 -0.609776 -1.795654 -3.88933 -4.807087 -11.046807 -2.93785 5e-06 -20.976015 1e-06 -5.01997 -25.033552 -4.031879 6e-06 0.0 -0.0 -10.634534 -5.686972 -3.565587 10.573272 -17.922947 -3.1139 2e-06 -13.821206 1e-06 -0.501777 -31.181498 -4.027018 -11.248905 -59.312462 7.024882 -13.982712 -7.150199 -2.875041 13.772727 -8.401491 -3.218242 0.347733 -34.211544 0.771652 -0.963028 -17.733372 2.621021 -2e-06 0.0 0.0 -17.346415 -20.095215 -4.201782 21.757555 -1.638375 3.866427 2e-06 -6.338822 -2e-06 -1.69759 -22.59174 -6.194006 2e-06 -7e-06 -3e-06 47.596352 -73.474976 147.566544 45.352837 -52.944572 17.497955 25.524469 -0.579196 0.019344 -1.334718 4.122571 -3.364018 22.182112 -20.375895 49.933323 -16.701815 -16.743528 28.476532 -4e-06 -12.690602 -1e-06 16.22591 -17.678509 2.477238 -0.10592 -1.513858 -4.275882 -5.039041 -5.612873 -2.953558 4e-06 -11.020524 -1e-06 -6.1113 -15.895334 -3.840471 -1e-06 2e-06 2e-06 -10.283371 -5.68029 -4.341837 11.028296 -11.302406 -2.372633 -1.384269 -14.238582 -6.320119 -0.625437 -26.924191 -3.8276 -4.250855 -49.622776 -3.939236 -13.708524 -7.363479 -3.720938 18.14115 -14.052739 -3.242677 6e-06 -18.78727 -2e-06 -0.429711 -8.456045 2.555503 2e-06 -1e-06 -0.0 -15.923534 -20.094484 -5.473584 30.41921 -7.190825 1.735926 3e-06 -8.162927 -2e-06 -1.861899 -22.861473 -6.167942 -0.0 -2e-06 1e-06 178.235886 -2.355423 -12.04781 6.326818 -0.010215 0.101152 -73.90995 0.000275 -4.649044 -7.135592 1.457784 2.051716 -1.0 -0.0 -0.0 -0.283917 -6.210405 -6.354301 6.834935 0.027465 -0.056099 -75.523018 -0.968189 -8.300689 -7.073349 0.853902 1.686983 -1.000001 -0.0 0.0 
0.0 0.0 0.0 0.0 -0.0 0.0 -0.259457 100.876442 6.20003 91.050819 -2.434812 90.096069 -4.525192 -0.722247 -0.068268 -12.368599 -0.7369 -0.421075 15.758172 -0.866913 -2.6785 19.018641 0.343432 2.613503 -2.52383 -0.727403 -1.027814 -28.771318 -0.343925 -1.996318 6e-06 -0.0 0.0 0.000699 0.022858 0.038607 0.04776 0.060436 0.063638 0.058403 -0.01922 0.014038 -133.796829 -69.989227 149.846085 36.444324 -50.712299 5.719184 26.699175 -0.517288 -0.163224 -7.403432 5.045646 -0.618125 17.636631 -26.322725 52.411182 -19.466661 -14.395594 29.410385 0.0 -8.774821 -3e-06 16.29002 -17.861128 5.822381 -0.609775 -1.795654 -3.889327 -4.807088 -11.046813 -2.93785 4e-06 -20.976019 -0.0 -5.019969 -25.033556 -4.031881 7e-06 -3e-06 -3e-06 -10.634534 -5.686972 -3.565587 10.573274 -17.922953 -3.113901 1e-06 -13.821211 2e-06 -0.501776 -31.181505 -4.027017 -11.301815 -59.331291 7.041917 -13.982714 -7.1502 -2.875043 13.772727 -8.401493 -3.218242 0.347735 -34.211555 0.771652 -0.963028 -17.73337 2.621019 -2e-06 1e-06 0.0 -17.346418 -20.095219 -4.201779 21.757557 -1.638375 3.866426 2e-06 -6.338825 -1e-06 -1.697588 -22.591747 -6.194005 0.0 -5e-06 -2e-06 47.624599 -73.500237 147.535248 45.226048 -52.978073 17.391935 25.382158 -0.592626 -0.002316 -1.309308 4.087492 -3.348191 22.182108 -20.375887 49.933296 -16.701809 -16.743526 28.476526 -3e-06 -12.6906 -0.0 16.230515 -17.648161 2.488864 -0.10592 -1.513856 -4.27588 -5.03904 -5.61287 -2.953553 3e-06 -11.02052 -1e-06 -6.111298 -15.89533 -3.840472 -0.0 -0.0 1e-06 -10.283368 -5.680286 -4.341836 11.028291 -11.302402 -2.372632 -1.38427 -14.238577 -6.320121 -0.625437 -26.924187 -3.827602 -4.274615 -49.683315 -3.914362 -13.708525 -7.363476 -3.720938 18.141148 -14.052736 -3.242675 5e-06 -18.78727 -1e-06 -0.42971 -8.456044 2.5555 2e-06 -1e-06 -1e-06 -15.923536 -20.094482 -5.473581 30.41921 -7.190823 1.735926 1e-06 -8.162924 -2e-06 -1.861902 -22.861467 -6.167942 -1e-06 -3e-06 -1e-06 178.292465 -2.3297 -11.977622 6.263118 -0.010988 0.12864 -73.898888 -0.034064 -4.718064 -7.111294 1.468243 2.057564 -0.999999 -0.0 0.0 -0.231634 -6.227939 -6.314036 6.796805 0.028192 -0.061291 -75.508484 -1.077235 -8.318849 -7.061971 0.844053 1.687006 -1.000002 0.0 0.0 
0.0 0.0 0.0 0.0 -0.0 0.0 -0.24187 100.875282 6.236385 91.061562 -2.419889 90.096397 -4.543389 -0.72805 -0.07786 -12.388926 -0.73243 -0.412169 15.800828 -0.860963 -2.661236 19.013456 0.321535 2.627843 -2.553899 -0.711423 -1.049905 -28.708939 -0.321435 -1.972612 6e-06 0.0 0.0 -0.005155 0.021139 0.031776 0.032093 0.05615 0.058773 0.044202 -0.018431 0.004839 -133.84964 -69.979156 149.925461 36.401615 -50.68837 5.751859 26.797934 -0.528866 -0.176925 -7.475722 5.065921 -0.63146 17.636631 -26.322725 52.411186 -19.466661 -14.395597 29.410389 0.0 -8.774822 -2e-06 16.298601 -17.86116 5.810876 -0.609775 -1.795653 -3.889328 -4.807088 -11.046813 -2.937852 5e-06 -20.976021 1e-06 -5.01997 -25.03356 -4.031879 6e-06 1e-06 -0.0 -10.634533 -5.68697 -3.565588 10.573274 -17.922951 -3.1139 2e-06 -13.821211 2e-06 -0.501778 -31.181505 -4.027014 -11.318082 -59.332561 7.022567 -13.982714 -7.150198 -2.875041 13.772729 -8.40149 -3.218245 0.347732 -34.211555 0.771656 -0.963028 -17.73337 2.621018 -2e-06 3e-06 0.0 -17.346418 -20.095219 -4.201783 21.757557 -1.638374 3.866428 1e-06 -6.338825 0.0 -1.697589 -22.591747 -6.194007 1e-06 -5e-06 -2e-06 47.642822 -73.534897 147.505783 45.133739 -53.020538 17.449966 25.247423 -0.562352 -0.005533 -1.322277 4.00727 -3.351209 22.182112 -20.375895 49.933319 -16.701811 -16.743528 28.476528 -4e-06 -12.690599 -0.0 16.22756 -17.61125 2.506657 -0.10592 -1.513857 -4.275878 -5.03904 -5.61287 -2.953556 5e-06 -11.020525 -2e-06 -6.111296 -15.89533 -3.840473 -0.0 -2e-06 2e-06 -10.28337 -5.680287 -4.341839 11.028296 -11.302406 -2.372632 -1.38427 -14.238581 -6.32012 -0.625438 -26.924194 -3.827603 -4.304835 -49.665371 -3.880928 -13.708525 -7.363475 -3.720939 18.141151 -14.052739 -3.242677 7e-06 -18.78727 0.0 -0.42971 -8.456045 2.555505 2e-06 -0.0 -0.0 -15.923536 -20.094482 -5.473579 30.41921 -7.190828 1.735924 3e-06 -8.162927 -1e-06 -1.8619 -22.861469 -6.167942 -0.0 -2e-06 -0.0 178.343964 -2.307663 -11.952187 6.216877 -0.013854 0.143889 -73.889832 -0.044847 -4.748294 -7.089837 1.468225 2.058601 -0.999998 -0.0 -0.0 -0.181456 -6.243861 -6.300776 6.763687 0.030026 -0.074127 -75.503197 -1.146153 -8.320222 -7.049122 0.831767 1.684072 -1.000003 -0.0 -0.0 
